<mxfile host="app.diagrams.net" agent="Mozilla/5.0 (Macintosh; Intel Mac OS X 10_15_7) AppleWebKit/537.36 (KHTML, like Gecko) Chrome/132.0.0.0 YaBrowser/25.2.0.0 Safari/537.36" version="26.2.14">
  <diagram name="Страница — 1" id="E-KWL4b_cUegu8uP3uy0">
    <mxGraphModel dx="2504" dy="2213" grid="1" gridSize="10" guides="1" tooltips="1" connect="1" arrows="1" fold="1" page="1" pageScale="1" pageWidth="827" pageHeight="1169" math="0" shadow="0">
      <root>
        <mxCell id="0" />
        <mxCell id="1" parent="0" />
        <mxCell id="BceRC29hzjKhQW0gHX47-20" style="edgeStyle=orthogonalEdgeStyle;rounded=0;orthogonalLoop=1;jettySize=auto;html=1;exitX=1;exitY=0.75;exitDx=0;exitDy=0;entryX=0;entryY=0.75;entryDx=0;entryDy=0;fillColor=#1ba1e2;strokeColor=#006EAF;" edge="1" parent="1" source="BceRC29hzjKhQW0gHX47-1" target="BceRC29hzjKhQW0gHX47-2">
          <mxGeometry relative="1" as="geometry" />
        </mxCell>
        <mxCell id="BceRC29hzjKhQW0gHX47-35" style="edgeStyle=orthogonalEdgeStyle;rounded=0;orthogonalLoop=1;jettySize=auto;html=1;exitX=1;exitY=0.25;exitDx=0;exitDy=0;entryX=0;entryY=0.5;entryDx=0;entryDy=0;fillColor=#0050ef;strokeColor=#001DBC;" edge="1" parent="1" source="BceRC29hzjKhQW0gHX47-1" target="BceRC29hzjKhQW0gHX47-29">
          <mxGeometry relative="1" as="geometry" />
        </mxCell>
        <mxCell id="BceRC29hzjKhQW0gHX47-36" style="edgeStyle=orthogonalEdgeStyle;rounded=0;orthogonalLoop=1;jettySize=auto;html=1;exitX=0.75;exitY=1;exitDx=0;exitDy=0;entryX=0;entryY=0.5;entryDx=0;entryDy=0;" edge="1" parent="1" source="BceRC29hzjKhQW0gHX47-1" target="BceRC29hzjKhQW0gHX47-37">
          <mxGeometry relative="1" as="geometry" />
        </mxCell>
        <mxCell id="BceRC29hzjKhQW0gHX47-51" style="edgeStyle=orthogonalEdgeStyle;rounded=0;orthogonalLoop=1;jettySize=auto;html=1;exitX=0.5;exitY=0;exitDx=0;exitDy=0;entryX=0.5;entryY=1;entryDx=0;entryDy=0;" edge="1" parent="1" source="BceRC29hzjKhQW0gHX47-1" target="BceRC29hzjKhQW0gHX47-22">
          <mxGeometry relative="1" as="geometry" />
        </mxCell>
        <mxCell id="BceRC29hzjKhQW0gHX47-1" value="&lt;font style=&quot;font-size: 24px;&quot;&gt;API Gateway&lt;/font&gt;" style="rounded=0;whiteSpace=wrap;html=1;" vertex="1" parent="1">
          <mxGeometry x="80" y="160" width="240" height="120" as="geometry" />
        </mxCell>
        <mxCell id="BceRC29hzjKhQW0gHX47-19" style="edgeStyle=orthogonalEdgeStyle;rounded=0;orthogonalLoop=1;jettySize=auto;html=1;entryX=0;entryY=0.7;entryDx=0;entryDy=0;exitX=1;exitY=0.75;exitDx=0;exitDy=0;" edge="1" parent="1" source="BceRC29hzjKhQW0gHX47-2" target="BceRC29hzjKhQW0gHX47-15">
          <mxGeometry relative="1" as="geometry">
            <mxPoint x="640" y="106" as="sourcePoint" />
          </mxGeometry>
        </mxCell>
        <mxCell id="BceRC29hzjKhQW0gHX47-55" style="edgeStyle=orthogonalEdgeStyle;rounded=0;orthogonalLoop=1;jettySize=auto;html=1;exitX=0;exitY=0.25;exitDx=0;exitDy=0;entryX=1;entryY=0.5;entryDx=0;entryDy=0;fillColor=#d80073;strokeColor=#A50040;" edge="1" parent="1" source="BceRC29hzjKhQW0gHX47-2" target="BceRC29hzjKhQW0gHX47-22">
          <mxGeometry relative="1" as="geometry" />
        </mxCell>
        <mxCell id="BceRC29hzjKhQW0gHX47-57" style="edgeStyle=orthogonalEdgeStyle;rounded=0;orthogonalLoop=1;jettySize=auto;html=1;exitX=0.5;exitY=1;exitDx=0;exitDy=0;entryX=0.5;entryY=0;entryDx=0;entryDy=0;" edge="1" parent="1" source="BceRC29hzjKhQW0gHX47-2" target="BceRC29hzjKhQW0gHX47-37">
          <mxGeometry relative="1" as="geometry" />
        </mxCell>
        <mxCell id="BceRC29hzjKhQW0gHX47-2" value="Blog" style="swimlane;fontSize=14;" vertex="1" parent="1">
          <mxGeometry x="440" y="-50" width="200" height="380" as="geometry" />
        </mxCell>
        <mxCell id="BceRC29hzjKhQW0gHX47-5" value="&lt;font style=&quot;font-size: 24px;&quot;&gt;Post&lt;/font&gt;" style="rounded=1;whiteSpace=wrap;html=1;" vertex="1" parent="BceRC29hzjKhQW0gHX47-2">
          <mxGeometry x="10" y="30" width="180" height="60" as="geometry" />
        </mxCell>
        <mxCell id="BceRC29hzjKhQW0gHX47-9" value="&lt;font style=&quot;font-size: 24px;&quot;&gt;Search&lt;/font&gt;" style="rounded=1;whiteSpace=wrap;html=1;" vertex="1" parent="BceRC29hzjKhQW0gHX47-2">
          <mxGeometry x="10" y="100" width="180" height="60" as="geometry" />
        </mxCell>
        <mxCell id="BceRC29hzjKhQW0gHX47-10" value="&lt;font style=&quot;font-size: 24px;&quot;&gt;Comment&lt;/font&gt;" style="rounded=1;whiteSpace=wrap;html=1;" vertex="1" parent="BceRC29hzjKhQW0gHX47-2">
          <mxGeometry x="10" y="170" width="180" height="60" as="geometry" />
        </mxCell>
        <mxCell id="BceRC29hzjKhQW0gHX47-45" value="&lt;font style=&quot;font-size: 24px;&quot;&gt;Feed&lt;/font&gt;" style="rounded=1;whiteSpace=wrap;html=1;" vertex="1" parent="BceRC29hzjKhQW0gHX47-2">
          <mxGeometry x="10" y="240" width="180" height="60" as="geometry" />
        </mxCell>
        <mxCell id="BceRC29hzjKhQW0gHX47-46" value="&lt;font style=&quot;font-size: 24px;&quot;&gt;Reaction&lt;/font&gt;" style="rounded=1;whiteSpace=wrap;html=1;" vertex="1" parent="BceRC29hzjKhQW0gHX47-2">
          <mxGeometry x="10" y="310" width="180" height="60" as="geometry" />
        </mxCell>
        <mxCell id="BceRC29hzjKhQW0gHX47-18" style="edgeStyle=orthogonalEdgeStyle;rounded=0;orthogonalLoop=1;jettySize=auto;html=1;exitX=0;exitY=0.3;exitDx=0;exitDy=0;entryX=1;entryY=0.25;entryDx=0;entryDy=0;" edge="1" parent="1" source="BceRC29hzjKhQW0gHX47-15" target="BceRC29hzjKhQW0gHX47-2">
          <mxGeometry relative="1" as="geometry">
            <mxPoint x="670" y="20" as="targetPoint" />
          </mxGeometry>
        </mxCell>
        <mxCell id="BceRC29hzjKhQW0gHX47-15" value="&lt;font style=&quot;font-size: 24px;&quot;&gt;MongoDB&lt;/font&gt;" style="shape=datastore;whiteSpace=wrap;html=1;" vertex="1" parent="1">
          <mxGeometry x="720" y="-20" width="180" height="180" as="geometry" />
        </mxCell>
        <mxCell id="BceRC29hzjKhQW0gHX47-22" value="Notify" style="swimlane;fontSize=14;" vertex="1" parent="1">
          <mxGeometry x="100" y="-100" width="200" height="170" as="geometry" />
        </mxCell>
        <mxCell id="BceRC29hzjKhQW0gHX47-23" value="&lt;font style=&quot;font-size: 24px;&quot;&gt;Subscriber&lt;/font&gt;" style="rounded=1;whiteSpace=wrap;html=1;" vertex="1" parent="BceRC29hzjKhQW0gHX47-22">
          <mxGeometry x="10" y="30" width="180" height="60" as="geometry" />
        </mxCell>
        <mxCell id="BceRC29hzjKhQW0gHX47-24" value="&lt;font style=&quot;font-size: 24px;&quot;&gt;Mail&lt;/font&gt;" style="rounded=1;whiteSpace=wrap;html=1;" vertex="1" parent="BceRC29hzjKhQW0gHX47-22">
          <mxGeometry x="10" y="100" width="180" height="60" as="geometry" />
        </mxCell>
        <mxCell id="BceRC29hzjKhQW0gHX47-28" style="edgeStyle=orthogonalEdgeStyle;rounded=0;orthogonalLoop=1;jettySize=auto;html=1;entryX=0;entryY=0.7;entryDx=0;entryDy=0;exitX=1;exitY=0.75;exitDx=0;exitDy=0;" edge="1" parent="1" source="BceRC29hzjKhQW0gHX47-29" target="BceRC29hzjKhQW0gHX47-34">
          <mxGeometry relative="1" as="geometry">
            <mxPoint x="640" y="-184" as="sourcePoint" />
          </mxGeometry>
        </mxCell>
        <mxCell id="BceRC29hzjKhQW0gHX47-59" style="edgeStyle=orthogonalEdgeStyle;rounded=0;orthogonalLoop=1;jettySize=auto;html=1;exitX=0.5;exitY=0;exitDx=0;exitDy=0;entryX=1;entryY=0.5;entryDx=0;entryDy=0;fillColor=#60a917;strokeColor=#2D7600;" edge="1" parent="1" source="BceRC29hzjKhQW0gHX47-29" target="BceRC29hzjKhQW0gHX47-37">
          <mxGeometry relative="1" as="geometry" />
        </mxCell>
        <mxCell id="BceRC29hzjKhQW0gHX47-29" value="Account" style="swimlane;fontSize=14;" vertex="1" parent="1">
          <mxGeometry x="440" y="-320" width="200" height="240" as="geometry" />
        </mxCell>
        <mxCell id="BceRC29hzjKhQW0gHX47-30" value="&lt;font style=&quot;font-size: 24px;&quot;&gt;Auth&lt;/font&gt;" style="rounded=1;whiteSpace=wrap;html=1;" vertex="1" parent="BceRC29hzjKhQW0gHX47-29">
          <mxGeometry x="10" y="30" width="180" height="60" as="geometry" />
        </mxCell>
        <mxCell id="BceRC29hzjKhQW0gHX47-31" value="&lt;font style=&quot;font-size: 24px;&quot;&gt;User&lt;/font&gt;" style="rounded=1;whiteSpace=wrap;html=1;" vertex="1" parent="BceRC29hzjKhQW0gHX47-29">
          <mxGeometry x="10" y="100" width="180" height="60" as="geometry" />
        </mxCell>
        <mxCell id="BceRC29hzjKhQW0gHX47-32" value="&lt;font style=&quot;font-size: 24px;&quot;&gt;Subscription&lt;/font&gt;" style="rounded=1;whiteSpace=wrap;html=1;" vertex="1" parent="BceRC29hzjKhQW0gHX47-29">
          <mxGeometry x="10" y="170" width="180" height="60" as="geometry" />
        </mxCell>
        <mxCell id="BceRC29hzjKhQW0gHX47-33" style="edgeStyle=orthogonalEdgeStyle;rounded=0;orthogonalLoop=1;jettySize=auto;html=1;exitX=0;exitY=0.3;exitDx=0;exitDy=0;entryX=1;entryY=0.25;entryDx=0;entryDy=0;" edge="1" parent="1" source="BceRC29hzjKhQW0gHX47-34" target="BceRC29hzjKhQW0gHX47-29">
          <mxGeometry relative="1" as="geometry">
            <mxPoint x="670" y="-270" as="targetPoint" />
          </mxGeometry>
        </mxCell>
        <mxCell id="BceRC29hzjKhQW0gHX47-34" value="&lt;font style=&quot;font-size: 24px;&quot;&gt;PostgreSQL&lt;/font&gt;" style="shape=datastore;whiteSpace=wrap;html=1;" vertex="1" parent="1">
          <mxGeometry x="720" y="-310" width="180" height="180" as="geometry" />
        </mxCell>
        <mxCell id="BceRC29hzjKhQW0gHX47-37" value="Storage" style="swimlane;fontSize=14;" vertex="1" parent="1">
          <mxGeometry x="440" y="360" width="200" height="170" as="geometry" />
        </mxCell>
        <mxCell id="BceRC29hzjKhQW0gHX47-38" value="&lt;font style=&quot;font-size: 24px;&quot;&gt;File&lt;/font&gt;" style="rounded=1;whiteSpace=wrap;html=1;" vertex="1" parent="BceRC29hzjKhQW0gHX47-37">
          <mxGeometry x="10" y="30" width="180" height="60" as="geometry" />
        </mxCell>
        <mxCell id="BceRC29hzjKhQW0gHX47-40" value="&lt;font style=&quot;font-size: 24px;&quot;&gt;Validation&lt;/font&gt;" style="rounded=1;whiteSpace=wrap;html=1;" vertex="1" parent="BceRC29hzjKhQW0gHX47-37">
          <mxGeometry x="10" y="100" width="180" height="60" as="geometry" />
        </mxCell>
        <mxCell id="BceRC29hzjKhQW0gHX47-44" style="edgeStyle=orthogonalEdgeStyle;rounded=0;orthogonalLoop=1;jettySize=auto;html=1;entryX=0;entryY=0.5;entryDx=0;entryDy=0;exitX=0.9;exitY=0.5;exitDx=0;exitDy=0;exitPerimeter=0;" edge="1" parent="1" source="BceRC29hzjKhQW0gHX47-43" target="BceRC29hzjKhQW0gHX47-1">
          <mxGeometry relative="1" as="geometry" />
        </mxCell>
        <mxCell id="BceRC29hzjKhQW0gHX47-43" value="&lt;font style=&quot;font-size: 27px;&quot;&gt;Client&lt;/font&gt;" style="shape=actor;whiteSpace=wrap;html=1;" vertex="1" parent="1">
          <mxGeometry x="-120" y="120" width="140" height="200" as="geometry" />
        </mxCell>
        <mxCell id="BceRC29hzjKhQW0gHX47-53" style="edgeStyle=orthogonalEdgeStyle;rounded=0;orthogonalLoop=1;jettySize=auto;html=1;exitX=0.85;exitY=0.95;exitDx=0;exitDy=0;exitPerimeter=0;entryX=0.75;entryY=0;entryDx=0;entryDy=0;" edge="1" parent="1" source="BceRC29hzjKhQW0gHX47-49" target="BceRC29hzjKhQW0gHX47-22">
          <mxGeometry relative="1" as="geometry" />
        </mxCell>
        <mxCell id="BceRC29hzjKhQW0gHX47-49" value="&lt;font style=&quot;font-size: 24px;&quot;&gt;RabbitMQ&lt;/font&gt;" style="shape=datastore;whiteSpace=wrap;html=1;" vertex="1" parent="1">
          <mxGeometry x="110" y="-330" width="180" height="180" as="geometry" />
        </mxCell>
        <mxCell id="BceRC29hzjKhQW0gHX47-52" style="edgeStyle=orthogonalEdgeStyle;rounded=0;orthogonalLoop=1;jettySize=auto;html=1;exitX=0.25;exitY=0;exitDx=0;exitDy=0;entryX=0.15;entryY=0.95;entryDx=0;entryDy=0;entryPerimeter=0;" edge="1" parent="1" source="BceRC29hzjKhQW0gHX47-22" target="BceRC29hzjKhQW0gHX47-49">
          <mxGeometry relative="1" as="geometry" />
        </mxCell>
        <mxCell id="BceRC29hzjKhQW0gHX47-54" style="edgeStyle=orthogonalEdgeStyle;rounded=0;orthogonalLoop=1;jettySize=auto;html=1;entryX=1;entryY=0.25;entryDx=0;entryDy=0;exitX=0;exitY=0.25;exitDx=0;exitDy=0;" edge="1" parent="1" source="BceRC29hzjKhQW0gHX47-29" target="BceRC29hzjKhQW0gHX47-22">
          <mxGeometry relative="1" as="geometry">
            <mxPoint x="420" y="-240" as="sourcePoint" />
          </mxGeometry>
        </mxCell>
      </root>
    </mxGraphModel>
  </diagram>
</mxfile>
